<svg width="43" height="43" viewBox="0 0 43 43" fill="none" xmlns="http://www.w3.org/2000/svg">
<circle cx="21.5" cy="21.5" r="21.5" fill="#7377B8"/>
<path d="M21.5625 27.1635C21.5625 26.9748 21.5625 26.8491 21.5 26.6604C21.4375 26.5346 21.4375 26.3459 21.375 26.2201C21.3125 26.0943 21.25 25.9686 21.1875 25.7799C21.0625 25.6541 21 25.5283 20.9375 25.4025C20.875 25.2767 20.75 25.2138 20.625 25.0252L20.3125 24.7107C20.25 24.6478 20.125 24.522 19.9375 24.3962C19.75 24.2704 19.625 24.1447 19.5625 24.1447C19.5 24.1447 19.375 24.0189 19.1875 23.8931C19 23.7673 18.875 23.6415 18.8125 23.6415H18.1875C17.75 23.6415 17.3125 23.6415 16.9375 23.7044C16.5 23.7673 16.0625 23.8302 15.625 24.0189C15.1875 24.1447 14.8125 24.3333 14.4375 24.5849C14.0625 24.8365 13.8125 25.0881 13.625 25.4654C13.4375 25.8428 13.3125 26.283 13.3125 26.7862C13.3125 27.3522 13.4375 27.8553 13.75 28.2327C14.0625 28.673 14.4375 28.9874 14.875 29.239C15.3125 29.4906 15.8125 29.6792 16.3125 29.805C16.8125 29.9308 17.3125 29.9937 17.8125 29.9937C18.3125 29.9937 18.75 29.9308 19.1875 29.8679C19.625 29.7421 20 29.6164 20.375 29.3648C20.75 29.1761 21.0625 28.8616 21.25 28.4843C21.4375 28.1069 21.5625 27.6667 21.5625 27.1635V27.1635ZM20.125 16.7233C20.125 16.2201 20.0625 15.717 19.9375 15.1509C19.8125 14.5849 19.625 14.0818 19.375 13.5786C19.125 13.0755 18.8125 12.6352 18.375 12.3208C17.9375 12.0063 17.4375 11.8176 16.9375 11.8176C16.1875 11.8176 15.625 12.0692 15.1875 12.6352C14.75 13.2013 14.5625 13.8302 14.5625 14.6478C14.5625 15.0252 14.625 15.4025 14.6875 15.8428C14.75 16.283 14.9375 16.6604 15.125 17.1006C15.3125 17.5409 15.5625 17.9182 15.8125 18.2327C16.0625 18.5472 16.375 18.8616 16.75 19.0503C17.125 19.239 17.5 19.3648 17.9375 19.3648C18.6875 19.3648 19.25 19.1132 19.625 18.6101C19.9375 18.1698 20.125 17.5409 20.125 16.7233V16.7233ZM18.5625 11H23.8125L22.1875 11.9434H20.5625C21.125 12.3208 21.5625 12.8239 21.875 13.4528C22.1875 14.0818 22.375 14.7736 22.375 15.4654C22.375 16.0314 22.3125 16.5975 22.125 17.0377C21.9375 17.478 21.6875 17.8553 21.4375 18.1698C21.1875 18.4214 20.9375 18.7358 20.625 18.9245C20.375 19.1761 20.125 19.4277 19.9375 19.6792C19.75 19.9308 19.6875 20.1824 19.6875 20.4969C19.6875 20.6855 19.75 20.9371 19.875 21.1258C20 21.3145 20.1875 21.5031 20.375 21.6918C20.5625 21.8805 20.8125 22.0692 21.0625 22.2579C21.3125 22.4465 21.5625 22.6981 21.8125 22.9497C22.0625 23.2013 22.3125 23.4528 22.5 23.7673C22.6875 24.0818 22.875 24.3962 23 24.7736C23.125 25.1509 23.1875 25.5912 23.1875 26.0314C23.1875 27.3522 22.625 28.4843 21.5 29.4277C20.3125 30.4969 18.625 31 16.4375 31C15.9375 31 15.5 30.9371 15 30.8742C14.5 30.8113 14 30.6855 13.5625 30.4969C13.0625 30.3082 12.625 30.0566 12.25 29.805C11.875 29.5535 11.5625 29.1761 11.3125 28.7358C11.125 28.3585 11 27.9182 11 27.3522C11 26.8491 11.125 26.3459 11.4375 25.717C11.6875 25.2138 12.0625 24.7736 12.5625 24.3962C13.0625 24.0189 13.6875 23.7044 14.3125 23.5157C14.9375 23.327 15.5625 23.2013 16.1875 23.0755C16.75 23.0126 17.375 22.9497 18 22.8868C17.5 22.195 17.25 21.6289 17.25 21.0629V20.7484C17.25 20.6855 17.3125 20.5597 17.3125 20.4969C17.3125 20.434 17.375 20.3711 17.4375 20.2453C17.5 20.1195 17.5 20.0566 17.5 19.9937C17.1875 20.0566 16.875 20.0566 16.6875 20.0566C15.5 20.0566 14.5 19.6792 13.625 18.8616C12.75 18.044 12.375 17.1006 12.375 15.9057C12.375 14.7736 12.75 13.7673 13.5 12.8868C14.25 12.0692 15.1875 11.5031 16.3125 11.2516C17.0625 11.0629 17.8125 11 18.5625 11ZM31 14.0818V15.6541H27.9375V18.7358H26.375V15.6541H23.3125V14.0818H26.375V11H27.9375V14.0818H31Z" fill="white"/>
</svg>
