<svg width="43" height="43" viewBox="0 0 43 43" fill="none" xmlns="http://www.w3.org/2000/svg">
<circle cx="21.5" cy="21.5" r="21.5" fill="#7377B8"/>
<path d="M32 14.1379C31.1776 14.4828 30.3551 14.7586 29.3956 14.8276C30.3551 14.2759 31.0405 13.3793 31.3832 12.3448C30.4922 12.8966 29.5327 13.2414 28.5047 13.4483C27.7508 12.5517 26.5171 12 25.2835 12C22.8162 12 20.7601 14 20.7601 16.5517C20.7601 16.8966 20.8287 17.2414 20.8972 17.5862C17.1277 17.3793 13.838 15.5862 11.5763 12.8276C11.1651 13.5172 10.9595 14.2759 10.9595 15.1034C10.9595 16.6897 11.7819 18.069 12.947 18.8966C12.1931 18.8966 11.5078 18.6897 10.891 18.3448V18.4138C10.891 20.6207 12.4673 22.4138 14.5234 22.8276C14.1121 22.8966 13.7695 22.9655 13.3583 22.9655C13.0841 22.9655 12.81 22.9655 12.5358 22.8966C13.0841 24.6897 14.7975 26 16.7165 26.069C15.2087 27.3103 13.2212 28 11.0966 28C10.7539 28 10.3427 28 10 27.931C11.9875 29.2414 14.3863 30 16.9221 30C25.215 30 29.7383 23.1034 29.7383 17.1034V16.5517C30.6293 15.8621 31.3832 15.0345 32 14.1379V14.1379Z" fill="white"/>
</svg>
